<?xml version="1.0" encoding="utf-8"?>
<!-- Generator: Adobe Illustrator 25.4.1, SVG Export Plug-In . SVG Version: 6.00 Build 0)  -->
<svg version="1.1" id="Capa_1" xmlns="http://www.w3.org/2000/svg" xmlns:xlink="http://www.w3.org/1999/xlink" x="0px" y="0px"
	 viewBox="0 0 512 512" style="enable-background:new 0 0 512 512;" xml:space="preserve">
<style type="text/css">
	.st0{fill:#212322;}
</style>
<g>
	<g>
		<path class="st0" d="M42,70.5c0,4.1,3.3,7.5,7.5,7.5s7.5-3.3,7.5-7.5s-3.3-7.5-7.5-7.5S42,66.4,42,70.5z"/>
		<path class="st0" d="M79.7,70.5c0,4.1,3.3,7.5,7.5,7.5s7.5-3.3,7.5-7.5s-3.3-7.5-7.5-7.5C83,63.1,79.7,66.4,79.7,70.5z"/>
		<path class="st0" d="M117.3,70.5c0,4.1,3.3,7.5,7.5,7.5c4.1,0,7.5-3.3,7.5-7.5s-3.4-7.5-7.5-7.5S117.3,66.4,117.3,70.5z"/>
		<path class="st0" d="M336.5,178.5h10.1c4.1,0,7.5-3.4,7.5-7.5s-3.4-7.5-7.5-7.5h-10.1c-4.1,0-7.5,3.4-7.5,7.5
			S332.4,178.5,336.5,178.5z"/>
		<path class="st0" d="M336.5,208.2h133.9c4.1,0,7.5-3.4,7.5-7.5s-3.4-7.5-7.5-7.5H336.5c-4.1,0-7.5,3.4-7.5,7.5
			S332.4,208.2,336.5,208.2z"/>
		<path class="st0" d="M336.5,238.4h133.9c4.1,0,7.5-3.4,7.5-7.5s-3.4-7.5-7.5-7.5H336.5c-4.1,0-7.5,3.4-7.5,7.5
			C329,235,332.4,238.4,336.5,238.4z"/>
		<path class="st0" d="M336.5,268.5h133.9c4.1,0,7.5-3.4,7.5-7.5s-3.4-7.5-7.5-7.5H336.5c-4.1,0-7.5,3.4-7.5,7.5
			C329,265.2,332.4,268.5,336.5,268.5z"/>
		<path class="st0" d="M336.5,298.7h133.9c4.1,0,7.5-3.4,7.5-7.5s-3.4-7.5-7.5-7.5H336.5c-4.1,0-7.5,3.4-7.5,7.5
			S332.4,298.7,336.5,298.7z"/>
		<path class="st0" d="M168.1,200.9c-3.8-1.7-8.2,0.1-9.9,3.9l-20.4,46.7c-1.7,3.8,0.1,8.2,3.9,9.9c1,0.4,2,0.6,3,0.6
			c2.9,0,5.6-1.7,6.9-4.5l20.4-46.7C173.7,207,171.9,202.6,168.1,200.9L168.1,200.9z"/>
		<path class="st0" d="M205.6,205.9c-2.3-3.4-6.9-4.4-10.4-2.1c-3.4,2.3-4.4,6.9-2.1,10.4l11,16.6l-11.1,17.4
			c-2.2,3.5-1.2,8.1,2.3,10.3c1.2,0.8,2.6,1.2,4,1.2c2.5,0,4.9-1.2,6.3-3.5l13.7-21.5c1.6-2.5,1.6-5.7-0.1-8.2L205.6,205.9z"/>
		<path class="st0" d="M114.6,203.8c-3.4-2.3-8.1-1.3-10.4,2.1l-13.7,20.7c-1.6,2.5-1.7,5.7-0.1,8.2l13.7,21.5
			c1.4,2.2,3.8,3.5,6.3,3.5c1.4,0,2.8-0.4,4-1.2c3.5-2.2,4.5-6.8,2.3-10.3l-11.1-17.4l11-16.6C119,210.7,118,206,114.6,203.8
			L114.6,203.8z"/>
		<path class="st0" d="M484.5,34.5H421c-4.1,0-7.5,3.3-7.5,7.5s3.4,7.5,7.5,7.5h63.5c6.9,0,12.5,5.6,12.5,12.5v29.5H15V62
			c0-6.9,5.6-12.5,12.5-12.5h359.1c4.1,0,7.5-3.3,7.5-7.5s-3.4-7.5-7.5-7.5H27.5C12.3,34.5,0,46.8,0,62v301.5
			c0,15.1,12.3,27.5,27.5,27.5h186.5c-0.6,3.6-1.3,8.2-2.2,13.3c-0.7,4.1,2.1,7.9,6.2,8.6c4.1,0.7,7.9-2.1,8.6-6.2
			c1-6.3,1.9-11.8,2.6-15.8h53.8c2.3,14.5,8.1,50,12.9,71.7h-79.6c1.3-5.7,2.7-12.8,4.3-21.2c0.8-4.1-1.9-8-6-8.7
			c-4.1-0.8-8,1.9-8.7,6c-1.9,10-3.5,18-4.9,23.9h-9.5c-4.1,0-7.5,3.4-7.5,7.5s3.4,7.5,7.5,7.5h129.4c4.1,0,7.5-3.4,7.5-7.5
			s-3.4-7.5-7.5-7.5h-9.5c-4.5-19.3-10.5-55.2-13.1-71.7h186.5c15.1,0,27.5-12.3,27.5-27.5V62C512,46.8,499.7,34.5,484.5,34.5
			L484.5,34.5z M15,143.8h279.9v174.7H15V143.8z M497,363.4c0,6.9-5.6,12.5-12.5,12.5H27.5c-6.9,0-12.5-5.6-12.5-12.5v-30H497
			L497,363.4L497,363.4z M497,318.4H309.9V143.8H497L497,318.4L497,318.4z M497,128.8H302.4H15v-22.4H497L497,128.8L497,128.8z"/>
	</g>
</g>
</svg>
