<svg width="512" height="512" xmlns="http://www.w3.org/2000/svg" version="1.1" xml:space="preserve">
 <g>
  <title>Layer 1</title>
  <g id="svg_1">
   <g id="svg_2" xmlns="http://www.w3.org/2000/svg">
    <path d="m123.806,105l234.55,0c21.146,0 38.349,17.271 38.349,38.5l0,102.556c0,4.143 3.358,7.5 7.5,7.5s7.5,-3.357 7.5,-7.5l0,-102.556c0,-29.5 -23.932,-53.5 -53.349,-53.5l-234.55,0c-4.142,0 -7.5,3.357 -7.5,7.5s3.358,7.5 7.5,7.5z" fill="#000000" data-original="#000000" id="svg_3"/>
    <path d="m306.358,336.556l-141.431,0c-2.201,0 -4.291,0.967 -5.716,2.645l-42.497,50.021l-42.496,-50.022c-1.425,-1.678 -3.515,-2.645 -5.716,-2.645l-15.153,0c-21.146,0 -38.349,-17.271 -38.349,-38.5l0,-154.555c0,-21.229 17.203,-38.5 38.349,-38.5l35.679,0c4.142,0 7.5,-3.357 7.5,-7.5s-3.358,-7.5 -7.5,-7.5l-35.679,0c-29.417,0 -53.349,24 -53.349,53.5l0,154.556c0,29.5 23.932,53.5 53.349,53.5l11.684,0l45.966,54.105c1.425,1.678 3.515,2.645 5.716,2.645s4.291,-0.967 5.716,-2.645l45.966,-54.105l137.961,0c4.142,0 7.5,-3.357 7.5,-7.5s-3.358,-7.5 -7.5,-7.5z" fill="#000000" data-original="#000000" id="svg_4"/>
    <path d="m221.328,447.329l-68.184,0c-4.142,0 -7.5,3.357 -7.5,7.5s3.358,7.5 7.5,7.5l68.184,0c9.528,0 17.28,7.776 17.28,17.335s-7.752,17.336 -17.28,17.336l-189.048,0c-9.528,0 -17.28,-7.777 -17.28,-17.336s7.752,-17.335 17.28,-17.335l6.635,0c2.406,0 4.666,-1.154 6.076,-3.103l13.033,-18.009l13.033,18.009c1.41,1.948 3.67,3.103 6.076,3.103l41.332,0c4.142,0 7.5,-3.357 7.5,-7.5s-3.358,-7.5 -7.5,-7.5l-37.502,0l-16.863,-23.302c-1.41,-1.948 -3.67,-3.103 -6.076,-3.103s-4.666,1.154 -6.076,3.103l-16.863,23.302l-2.805,0c-17.799,0 -32.28,14.506 -32.28,32.335c0,17.83 14.481,32.336 32.28,32.336l189.048,0c17.799,0 32.28,-14.506 32.28,-32.336c0,-17.829 -14.481,-32.335 -32.28,-32.335z" fill="#000000" data-original="#000000" id="svg_5"/>
    <path d="m290.659,64.671l28.213,0c4.142,0 7.5,-3.357 7.5,-7.5s-3.358,-7.5 -7.5,-7.5l-28.213,0c-9.528,0 -17.28,-7.776 -17.28,-17.335s7.752,-17.336 17.28,-17.336l189.048,0c9.528,0 17.28,7.776 17.28,17.335s-7.752,17.336 -17.28,17.336l-6.635,0c-2.406,0 -4.666,1.154 -6.076,3.103l-13.033,18.009l-13.033,-18.01c-1.41,-1.948 -3.67,-3.103 -6.076,-3.103l-81.302,0c-4.142,0 -7.5,3.357 -7.5,7.5s3.358,7.5 7.5,7.5l77.472,0l16.863,23.302c1.41,1.948 3.67,3.103 6.076,3.103s4.666,-1.154 6.076,-3.103l16.863,-23.302l2.805,0c17.799,0 32.28,-14.506 32.28,-32.336c0,-17.828 -14.481,-32.334 -32.28,-32.334l-189.048,0c-17.799,0 -32.28,14.506 -32.28,32.336c0,17.829 14.481,32.335 32.28,32.335z" fill="#000000" data-original="#000000" id="svg_6"/>
    <path d="m109.855,253.936c-4.142,0 -7.5,3.357 -7.5,7.5s3.358,7.5 7.5,7.5l39.999,0c4.142,0 7.5,-3.357 7.5,-7.5l0,-40c0,-4.143 -3.358,-7.5 -7.5,-7.5l-32.499,0l0,-25l32.499,0c4.142,0 7.5,-3.357 7.5,-7.5s-3.358,-7.5 -7.5,-7.5l-39.999,0c-4.142,0 -7.5,3.357 -7.5,7.5l0,40c0,4.143 3.358,7.5 7.5,7.5l32.499,0l0,25l-32.499,0z" fill="#000000" data-original="#000000" id="svg_7"/>
    <path d="m224.852,188.936c4.142,0 7.5,-3.357 7.5,-7.5s-3.358,-7.5 -7.5,-7.5l-39.999,0c-4.142,0 -7.5,3.357 -7.5,7.5l0,80c0,4.143 3.358,7.5 7.5,7.5l39.999,0c4.142,0 7.5,-3.357 7.5,-7.5s-3.358,-7.5 -7.5,-7.5l-32.499,0l0,-25l32.499,0c4.142,0 7.5,-3.357 7.5,-7.5s-3.358,-7.5 -7.5,-7.5l-32.499,0l0,-25l32.499,0z" fill="#000000" data-original="#000000" id="svg_8"/>
    <path d="m259.852,173.936c-4.142,0 -7.5,3.357 -7.5,7.5l0,80c0,4.143 3.358,7.5 7.5,7.5l39.999,0c4.142,0 7.5,-3.357 7.5,-7.5l0,-80c0,-4.143 -3.358,-7.5 -7.5,-7.5l-39.999,0zm32.499,80l-24.999,0l0,-65l24.999,0l0,65z" fill="#000000" data-original="#000000" id="svg_9"/>
    <path d="m511.987,345.242c-0.001,-3.688 -2.683,-6.827 -6.325,-7.404l-10.348,-1.642l-4.939,-11.919l6.154,-8.489c2.164,-2.985 1.837,-7.1 -0.77,-9.706l-21.182,-21.18c-2.61,-2.609 -6.729,-2.934 -9.713,-0.763l-8.471,6.158l-11.914,-4.934l-1.647,-10.352c-0.579,-3.642 -3.72,-6.321 -7.407,-6.321l-0.003,0l-29.945,0.012c-3.688,0.001 -6.829,2.685 -7.405,6.328l-1.639,10.357l-11.903,4.939l-8.479,-6.154c-2.987,-2.168 -7.106,-1.842 -9.712,0.77l-21.167,21.195c-2.605,2.608 -2.928,6.724 -0.762,9.706l6.157,8.48l-4.933,11.929l-10.341,1.648c-3.642,0.58 -6.321,3.722 -6.32,7.409l0.012,29.965c0.001,3.688 2.684,6.827 6.326,7.404l10.347,1.641l4.939,11.919l-6.154,8.489c-2.164,2.985 -1.837,7.1 0.769,9.706l21.181,21.181c2.608,2.607 6.727,2.934 9.713,0.763l8.471,-6.158l11.913,4.934l1.647,10.352c0.58,3.642 3.72,6.321 7.407,6.321l0.003,0l29.945,-0.013c3.688,-0.002 6.828,-2.685 7.404,-6.327l1.64,-10.358l11.904,-4.939l8.479,6.155c2.986,2.168 7.105,1.841 9.712,-0.77l21.167,-21.195c2.605,-2.608 2.928,-6.723 0.763,-9.706l-6.157,-8.481l4.933,-11.929l10.341,-1.647c3.642,-0.58 6.322,-3.722 6.32,-7.409l-0.011,-29.965zm-23.154,24.869c-2.576,0.41 -4.754,2.13 -5.751,4.54l-8.141,19.686c-0.996,2.409 -0.67,5.163 0.861,7.272l4.863,6.698l-12.118,12.135l-6.694,-4.859c-2.113,-1.533 -4.87,-1.858 -7.28,-0.858l-19.661,8.158c-2.409,1 -4.125,3.179 -4.533,5.755l-1.295,8.18l-17.138,0.007l-1.301,-8.173c-0.41,-2.575 -2.128,-4.753 -4.538,-5.751l-19.672,-8.146c-0.924,-0.383 -1.898,-0.57 -2.869,-0.57c-1.561,0 -3.108,0.487 -4.411,1.434l-6.686,4.86l-12.125,-12.125l4.861,-6.706c1.53,-2.111 1.854,-4.865 0.856,-7.273l-8.151,-19.675c-0.999,-2.41 -3.178,-4.128 -5.754,-4.536l-8.171,-1.296l-0.007,-17.16l8.165,-1.302c2.576,-0.41 4.754,-2.13 5.75,-4.54l8.141,-19.686c0.997,-2.409 0.67,-5.163 -0.862,-7.272l-4.863,-6.698l12.118,-12.134l6.694,4.858c2.113,1.535 4.871,1.858 7.28,0.858l19.661,-8.158c2.409,-1 4.125,-3.18 4.533,-5.756l1.294,-8.179l17.138,-0.006l1.3,8.173c0.41,2.575 2.128,4.753 4.538,5.751l19.673,8.146c2.412,0.998 5.168,0.671 7.279,-0.863l6.686,-4.86l12.126,12.125l-4.861,6.705c-1.53,2.111 -1.854,4.865 -0.856,7.273l8.153,19.674c0.999,2.41 3.178,4.128 5.754,4.536l8.172,1.296l0.007,17.161l-8.165,1.301z" fill="#000000" data-original="#000000" id="svg_10"/>
    <path d="m452.329,352.759c-4.142,0 -7.5,3.357 -7.5,7.5c0,13.423 -10.92,24.343 -24.342,24.343s-24.342,-10.92 -24.342,-24.343s10.92,-24.343 24.342,-24.343c3.515,0 6.904,0.731 10.071,2.173c3.771,1.718 8.218,0.051 9.934,-3.719c1.716,-3.771 0.051,-8.218 -3.719,-9.934c-5.132,-2.336 -10.611,-3.521 -16.286,-3.521c-21.693,0 -39.342,17.649 -39.342,39.343s17.649,39.343 39.342,39.343s39.342,-17.649 39.342,-39.343c0,-4.142 -3.358,-7.499 -7.5,-7.499z" fill="#000000" data-original="#000000" id="svg_11"/>
   </g>
  </g>
 </g>

</svg>